<?xml version="1.0" encoding="UTF-8"?>
<!-- Generator: visioncortex VTracer 0.6.4 -->
<svg version="1.1" xmlns="http://www.w3.org/2000/svg" width="438" height="300">
<path d="M0 0 C144.54 0 289.08 0 438 0 C438 99 438 198 438 300 C293.46 300 148.92 300 0 300 C0 201 0 102 0 0 Z " fill="#FDFBFB" transform="translate(0,0)"/>
<path d="M0 0 C43.23 0 86.46 0 131 0 C131 99 131 198 131 300 C81.17 300 31.34 300 -20 300 C-20 299.67 -20 299.34 -20 299 C-21.98 298.67 -23.96 298.34 -26 298 C-26 297.67 -26 297.34 -26 297 C-25.341047 296.955125 -24.682095 296.910249 -24.003174 296.864014 C-4.47695 296.805053 -4.47695 296.805053 13.074707 290.296387 C15.385895 287.539725 15.721615 285.822292 16.195312 282.28125 C16.353867 281.184258 16.512422 280.087266 16.675781 278.957031 C16.824023 277.816211 16.972266 276.675391 17.125 275.5 C17.434163 273.238763 17.749037 270.978298 18.070312 268.71875 C18.201958 267.717793 18.333604 266.716836 18.469238 265.685547 C18.982199 263.090069 19.591678 261.230508 21 259 C23.199219 257.929688 23.199219 257.929688 26 258 C28.490925 259.624904 30.580193 261.200013 32.8125 263.125 C34.062118 264.145295 35.313407 265.163548 36.566406 266.179688 C37.162114 266.669209 37.757822 267.15873 38.371582 267.663086 C44.758259 272.9925 44.758259 272.9925 52.753906 273.960938 C58.365884 273.263925 61.540634 271.07181 65.6875 267.375 C66.36031 266.80177 67.03312 266.22854 67.726318 265.637939 C77.843062 256.875285 87.457665 247.309715 96 237 C96.489844 236.437969 96.979688 235.875937 97.484375 235.296875 C101.51557 230.63156 102.592106 226.889914 102.539062 220.816406 C101.292602 214.304102 96.033594 209.411155 91.875 204.480469 C91.235625 203.703164 90.59625 202.925859 89.9375 202.125 C89.053848 201.10793 89.053848 201.10793 88.152344 200.070312 C87 198 87 198 87.253906 195.367188 C88 193 88 193 89 191 C91.313232 190.453369 91.313232 190.453369 94.355469 190.035156 C96.001924 189.794424 96.001924 189.794424 97.681641 189.548828 C99.999186 189.227341 102.316893 188.907009 104.634766 188.587891 C112.736976 187.523381 112.736976 187.523381 120 184 C129.773859 167.450211 126.771579 137.212453 122.687256 119.378174 C121.713875 115.630636 120.704772 112.784164 118 110 C115.07348 109.039757 115.07348 109.039757 111.6875 108.621094 C109.827383 108.322354 109.827383 108.322354 107.929688 108.017578 C106.632891 107.826152 105.336094 107.634727 104 107.4375 C101.435822 107.051344 98.873198 106.654687 96.3125 106.246094 C95.174258 106.077791 94.036016 105.909487 92.863281 105.736084 C89.918625 104.97908 88.74472 104.452672 87 102 C86.868864 96.754576 90.798688 92.904827 93.875 89 C100.366117 81.323392 100.366117 81.323392 103.375 72.0625 C100.509432 54.611191 74.631119 34.624426 61.089844 24.863281 C56.849099 22.305967 52.922746 20.794602 48 22 C43.745891 24.557052 39.832657 27.571483 35.875 30.5625 C34.861797 31.326914 33.848594 32.091328 32.804688 32.878906 C31.116144 34.155897 29.441727 35.452359 27.796875 36.785156 C26 38 26 38 23.375 37.875 C21 37 21 37 19 34 C18.545166 31.735107 18.545166 31.735107 18.253906 29.105469 C18.138535 28.149629 18.023164 27.193789 17.904297 26.208984 C17.67779 24.206667 17.453801 22.204063 17.232422 20.201172 C16.493546 14.122794 15.702733 8.910635 11.375 4.25 C7.781217 2.358535 3.973385 1.721662 0 1 C0 0.67 0 0.34 0 0 Z " fill="#FDFAFA" transform="translate(307,0)"/>
<path d="M0 0 C0.997009 0.000121 0.997009 0.000121 2.01416 0.000244 C4.006878 -0.001914 5.999557 -0.020338 7.992188 -0.039062 C25.498996 -0.065615 25.498996 -0.065615 31.480469 4.498047 C35.202568 8.401712 36.204846 12.110711 36.859375 17.380859 C36.98377 18.343789 37.108164 19.306719 37.236328 20.298828 C37.358145 21.292695 37.479961 22.286562 37.605469 23.310547 C37.854187 25.292644 38.10538 27.274432 38.359375 29.255859 C38.467092 30.130005 38.57481 31.00415 38.685791 31.904785 C39.002841 34.341231 39.002841 34.341231 40.042969 37.185547 C43.653968 37.680387 44.953494 37.244192 48.058594 35.208984 C49.144953 34.336324 50.222762 33.452942 51.292969 32.560547 C52.449435 31.64381 53.60699 30.728446 54.765625 29.814453 C56.698304 28.269309 58.621247 26.714055 60.539062 25.150391 C64.324757 22.295937 67.160902 20.728225 71.980469 20.810547 C78.362734 21.951291 82.409928 25.898255 87.042969 30.185547 C87.968516 31.005391 88.894063 31.825234 89.847656 32.669922 C119.510795 59.26446 119.510795 59.26446 123.042969 71.185547 C122.7485 76.780445 121.333605 79.782659 117.855469 84.123047 C117.049805 85.154297 116.244141 86.185547 115.414062 87.248047 C113.978374 89.026692 112.535167 90.799352 111.078125 92.560547 C107.899224 96.361525 107.899224 96.361525 106.855469 101.060547 C108.467088 103.944498 109.943326 104.154696 113.042969 105.185547 C114.899255 105.538591 116.767156 105.834006 118.640625 106.080078 C119.689277 106.231543 120.73793 106.383008 121.818359 106.539062 C124.012025 106.845368 126.207407 107.139622 128.404297 107.421875 C136.334235 108.597946 136.334235 108.597946 139.648438 111.345703 C148.336402 129.038002 146.307294 152.077282 143.792969 170.998047 C143.683962 171.844719 143.574956 172.691392 143.462646 173.563721 C142.674665 178.618256 141.426164 182.178807 138.042969 186.185547 C130.054964 191.17805 117.218184 190.441647 108.042969 191.185547 C106.809206 195.635992 106.809206 195.635992 107.927246 199.979004 C109.283483 201.819132 110.71571 203.536123 112.230469 205.248047 C113.225945 206.424754 114.219461 207.603123 115.210938 208.783203 C115.691516 209.35321 116.172095 209.923218 116.667236 210.510498 C120.043316 214.621107 122.610122 217.79398 122.480469 223.248047 C122.478535 224.472012 122.478535 224.472012 122.476562 225.720703 C121.576661 230.836357 118.224545 234.284506 114.792969 237.998047 C112.07487 240.960077 109.391929 243.931273 106.792969 246.998047 C83.477433 273.590651 83.477433 273.590651 71.792969 275.685547 C65.982367 275.657566 62.398971 272.737154 58.042969 269.185547 C56.37677 267.844234 54.705992 266.509599 53.026611 265.184814 C51.889073 264.283082 50.762074 263.367859 49.647217 262.438232 C46.236496 259.698438 44.355579 258.955067 40.042969 259.185547 C39.917688 260.037859 39.792407 260.890171 39.66333 261.768311 C39.185788 264.948673 38.689804 268.125463 38.181396 271.301025 C37.965698 272.672283 37.75725 274.044702 37.556396 275.418213 C37.265334 277.399595 36.945436 279.376672 36.625 281.353516 C36.441711 282.542273 36.258423 283.73103 36.06958 284.955811 C34.827175 288.864438 33.178202 290.591819 30.042969 293.185547 C25.826187 294.736798 21.4656 295.424492 17.042969 296.185547 C16.31207 296.31832 15.581172 296.451094 14.828125 296.587891 C12.559181 296.915877 10.333863 297.067222 8.042969 297.185547 C7.364761 297.22873 6.686553 297.271914 5.987793 297.316406 C3.589746 297.455482 1.193697 297.543923 -1.207031 297.623047 C-1.988445 297.669695 -2.769858 297.716343 -3.574951 297.764404 C-9.103678 297.867151 -9.103678 297.867151 -11.580078 295.88916 C-14.114556 292.89924 -15.828183 290.319414 -16.269531 286.435547 C-15.876968 282.352884 -14.48804 280.367387 -11.957031 277.185547 C-8.722117 275.028938 -7.443849 274.866027 -3.667969 274.623047 C-2.132695 274.510898 -2.132695 274.510898 -0.566406 274.396484 C1.597623 274.255352 3.761686 274.114731 5.925781 273.974609 C7.457187 273.862461 7.457187 273.862461 9.019531 273.748047 C9.958774 273.687461 10.898018 273.626875 11.865723 273.564453 C12.584214 273.439414 13.302705 273.314375 14.042969 273.185547 C15.680874 269.909737 15.579625 266.230485 15.917969 262.623047 C17.586123 246.543625 17.586123 246.543625 21.597656 242.693359 C25.155447 240.499578 28.908133 239.018338 32.792969 237.498047 C33.566406 237.177715 34.339844 236.857383 35.136719 236.527344 C40.356322 234.473658 44.432796 233.510248 50.042969 234.185547 C55.523927 237.122275 60.267296 241.537709 65.007812 245.558594 C66.984723 247.213711 66.984723 247.213711 70.042969 249.185547 C73.927675 248.718943 75.548738 246.946438 78.167969 244.123047 C79.423095 242.775562 80.708039 241.454019 82.042969 240.185547 C82.702969 240.185547 83.362969 240.185547 84.042969 240.185547 C84.30207 239.597734 84.561172 239.009922 84.828125 238.404297 C86.127567 236.03104 87.521349 234.539338 89.480469 232.685547 C93.166286 229.254527 93.166286 229.254527 96.042969 225.185547 C95.885391 219.798374 92.343871 216.418819 89.042969 212.498047 C87.937413 211.161955 86.833182 209.824766 85.730469 208.486328 C84.99377 207.607147 84.99377 207.607147 84.242188 206.710205 C81.577326 203.322164 81.657151 200.303381 81.6875 196.115234 C82.342243 190.719004 84.721144 186.047308 87.042969 181.185547 C87.517344 180.051172 87.991719 178.916797 88.480469 177.748047 C91.085982 173.475005 93.798888 170.772828 98.656006 169.501709 C101.698535 169.023948 104.727791 168.671949 107.792969 168.373047 C108.846133 168.25252 109.899297 168.131992 110.984375 168.007812 C118.304888 167.185547 118.304888 167.185547 121.042969 167.185547 C121.042969 154.645547 121.042969 142.105547 121.042969 129.185547 C114.822333 128.649812 114.822333 128.649812 108.599609 128.139404 C95.885485 126.956184 95.885485 126.956184 91.34375 122.529297 C91.017617 121.920859 90.691484 121.312422 90.355469 120.685547 C89.975195 119.992031 89.594922 119.298516 89.203125 118.583984 C87.060635 114.154729 85.015796 109.692698 83.042969 105.185547 C82.712969 104.525547 82.382969 103.865547 82.042969 103.185547 C81.482271 97.697183 81.607311 93.687443 85.042969 89.185547 C85.452891 88.573242 85.862813 87.960938 86.285156 87.330078 C88.780542 83.631296 88.780542 83.631296 90.042969 82.185547 C90.702969 82.185547 91.362969 82.185547 92.042969 82.185547 C92.311094 81.422422 92.579219 80.659297 92.855469 79.873047 C93.98721 77.311738 94.955203 75.988617 97.042969 74.185547 C93.688289 66.9011 87.378133 61.431135 81.792969 55.810547 C81.013972 55.024541 81.013972 55.024541 80.219238 54.222656 C77.919069 51.932192 75.753754 49.992737 73.042969 48.185547 C68.208897 48.334542 65.129325 51.123229 61.542969 54.060547 C50.723045 62.771715 50.723045 62.771715 44.286621 62.505859 C39.911789 61.881291 35.940787 60.318455 31.855469 58.685547 C30.541592 58.21375 30.541592 58.21375 29.201172 57.732422 C23.863345 55.628047 20.626924 53.509631 17.895752 48.384277 C16.442502 44.637363 16.007896 40.985646 15.730469 36.998047 C15.657637 36.21752 15.584805 35.436992 15.509766 34.632812 C15.168709 30.803231 15.014894 27.031737 15.042969 23.185547 C14.372415 23.145908 13.70186 23.10627 13.010986 23.06543 C9.957633 22.874282 6.906898 22.655206 3.855469 22.435547 C2.800371 22.373672 1.745273 22.311797 0.658203 22.248047 C-9.226079 21.49971 -9.226079 21.49971 -12.957031 17.185547 C-14.607285 12.234787 -14.798364 7.904793 -12.519531 3.248047 C-9.153889 -1.194601 -5.386382 0.024708 0 0 Z " fill="#CD0B16" transform="translate(287.95703125,-0.185546875)"/>
<path d="M0 0 C14.253544 4.783332 26.627433 12.509921 35.945312 24.394531 C36.543437 25.156367 37.141563 25.918203 37.757812 26.703125 C48.698822 41.440477 52.640358 59.074755 50.636719 77.183594 C47.404899 97.032114 37.35041 114.618146 20.972656 126.5625 C7.658273 135.185302 -5.171061 138.555598 -20.899628 138.514786 C-22.101235 138.51564 -23.302842 138.516495 -24.540862 138.517375 C-27.867989 138.518736 -31.195057 138.515616 -34.522177 138.510597 C-38.113107 138.506274 -41.704036 138.50774 -45.294968 138.508499 C-51.513807 138.509023 -57.732636 138.505889 -63.951473 138.500261 C-72.942841 138.492131 -81.934204 138.489529 -90.925575 138.488273 C-105.513863 138.486085 -120.102145 138.479432 -134.69043 138.469971 C-148.860677 138.46079 -163.030922 138.453712 -177.201172 138.449463 C-178.074785 138.4492 -178.948399 138.448937 -179.848485 138.448667 C-184.231194 138.447362 -188.613903 138.446098 -192.996612 138.444855 C-229.349308 138.43449 -265.701997 138.416878 -302.054688 138.394531 C-301.747046 135.878974 -301.437551 133.363667 -301.127029 130.848465 C-301.041337 130.146195 -300.955645 129.443926 -300.867356 128.720376 C-299.998383 121.703952 -298.841477 114.746014 -297.628906 107.78125 C-297.396849 106.433951 -297.16507 105.086603 -296.933548 103.739212 C-296.450875 100.934714 -295.965811 98.130645 -295.47876 95.326904 C-294.870175 91.823213 -294.266207 88.318747 -293.663862 84.813978 C-290.597756 66.981083 -287.396022 49.17817 -284.054688 31.394531 C-277.454687 31.394531 -270.854688 31.394531 -264.054688 31.394531 C-265.978743 45.6783 -267.981045 59.945859 -270.106934 74.200928 C-270.55703 77.222755 -271.003202 80.245146 -271.449219 83.267578 C-271.744555 85.253941 -272.04012 87.240271 -272.335938 89.226562 C-272.464159 90.097873 -272.59238 90.969184 -272.724487 91.866898 C-273.596404 97.682654 -274.58477 103.473281 -275.613159 109.262985 C-275.752024 110.047208 -275.890889 110.83143 -276.033962 111.639417 C-276.373738 113.557871 -276.714148 115.476213 -277.054688 117.394531 C-243.830593 117.312731 -210.606546 117.220549 -177.382521 117.11448 C-173.458546 117.101961 -169.534571 117.089528 -165.610596 117.077148 C-164.829415 117.074682 -164.048235 117.072216 -163.243383 117.069676 C-150.600949 117.029971 -137.958506 116.997214 -125.316046 116.967031 C-112.340043 116.935898 -99.364078 116.897281 -86.388118 116.851741 C-78.383725 116.823885 -70.379359 116.801839 -62.37493 116.787269 C-56.233191 116.775463 -50.091529 116.753235 -43.949835 116.727148 C-41.433198 116.718083 -38.916547 116.712385 -36.399895 116.710318 C-32.960997 116.706988 -29.522357 116.691489 -26.083511 116.673004 C-25.090298 116.674939 -24.097086 116.676874 -23.073775 116.678867 C-8.518661 116.562099 2.846173 111.845617 13.945312 102.394531 C24.040711 92.033465 27.20111 80.273691 27.194092 66.271729 C27.109031 60.215244 26.44563 54.972162 23.945312 49.394531 C23.616602 48.65332 23.287891 47.912109 22.949219 47.148438 C16.977364 35.225392 6.746641 25.813458 -5.929688 21.519531 C-10.926763 20.184313 -15.919437 19.992617 -21.074219 19.898438 C-24.761522 19.275027 -26.3834 17.963256 -29.054688 15.394531 C-31.538548 11.66874 -31.435109 9.807417 -31.054688 5.394531 C-25.622019 -7.186384 -10.447184 -3.035476 0 0 Z " fill="#D7271D" transform="translate(304.0546875,79.60546875)"/>
<path d="M0 0 C4.104151 -0.029442 8.208275 -0.046945 12.3125 -0.0625 C13.46041 -0.070879 14.60832 -0.079258 15.791016 -0.087891 C29.76144 -0.127467 41.49036 0.012279 52.207031 9.9375 C60.373934 19.332107 60.479737 30.183309 60 42 C58.98897 50.897068 54.436622 59.514815 47.875 65.539062 C44.773621 67.955554 41.623206 69.516893 38 71 C37.376658 71.270784 36.753315 71.541567 36.111084 71.820557 C27.038872 75.153911 17.386174 74.323839 7.875 74.1875 C6.041678 74.172428 4.208343 74.158744 2.375 74.146484 C-2.083633 74.113677 -6.541682 74.062036 -11 74 C-10.431474 65.090359 -9.167361 56.413443 -7.625 47.625 C-5.88002 37.500247 -4.272085 27.373125 -2.98877 17.178223 C-2.247667 11.391612 -1.210676 5.706718 0 0 Z " fill="#040404" transform="translate(258,112)"/>
<path d="M0 0 C4.498234 -0.100021 8.995852 -0.172002 13.494873 -0.219727 C15.020379 -0.239653 16.54581 -0.266805 18.071045 -0.301758 C38.749179 -0.763232 38.749179 -0.763232 46.253174 6.043945 C51.977436 12.21692 52.363433 17.191506 52.269531 25.480469 C51.832785 31.183483 50.349346 34.772963 46.199219 38.707031 C42.065483 42.005993 37.865069 43.998808 33 46 C33.484688 46.777144 33.969375 47.554287 34.46875 48.35498 C36.261388 51.233974 38.050007 54.115381 39.835938 56.998535 C40.610376 58.246927 41.386412 59.494329 42.164062 60.740723 C43.280241 62.53031 44.390663 64.323354 45.5 66.117188 C46.170312 67.195972 46.840625 68.274756 47.53125 69.38623 C49 72 49 72 49 74 C41.74 74 34.48 74 27 74 C22.25 64.9375 22.25 64.9375 20.77832 62.124756 C18.275609 57.360135 15.702801 52.654122 13 48 C12.884065 48.716558 12.76813 49.433115 12.648682 50.171387 C12.123326 53.406483 11.592977 56.64074 11.0625 59.875 C10.880098 61.00293 10.697695 62.130859 10.509766 63.292969 C10.243896 64.90752 10.243896 64.90752 9.972656 66.554688 C9.810315 67.549683 9.647974 68.544678 9.480713 69.569824 C9 72 9 72 8 74 C1.73 74 -4.54 74 -11 74 C-10.411151 66.021523 -9.520995 58.203985 -8.222656 50.3125 C-8.051246 49.248137 -7.879836 48.183774 -7.703232 47.087158 C-7.160571 43.724068 -6.611627 40.36204 -6.0625 37 C-5.698157 34.747462 -5.334222 32.494858 -4.970703 30.242188 C-3.340324 20.156977 -1.685403 10.076167 0 0 Z " fill="#050505" transform="translate(56,112)"/>
<path d="M0 0 C1.56319 0.007855 1.56319 0.007855 3.157959 0.015869 C4.282666 0.019092 5.407373 0.022314 6.566162 0.025635 C7.750166 0.034014 8.93417 0.042393 10.154053 0.051025 C11.341924 0.055537 12.529795 0.060049 13.753662 0.064697 C16.699675 0.076529 19.64559 0.093013 22.591553 0.113525 C26.474476 15.514541 29.684718 31.038154 32.823975 46.604004 C32.9919 47.433979 33.159826 48.263954 33.33284 49.11908 C33.647984 50.678255 33.961496 52.237761 34.272995 53.797668 C34.985405 57.324527 35.765132 60.800028 36.702148 64.274414 C37.591553 68.113525 37.591553 68.113525 37.591553 74.113525 C30.991553 74.113525 24.391553 74.113525 17.591553 74.113525 C15.591553 66.113525 15.591553 66.113525 15.591553 60.113525 C6.681553 60.113525 -2.228447 60.113525 -11.408447 60.113525 C-11.738447 61.763525 -12.068447 63.413525 -12.408447 65.113525 C-14.058447 68.083525 -15.708447 71.053525 -17.408447 74.113525 C-24.668447 74.113525 -31.928447 74.113525 -39.408447 74.113525 C-32.574696 59.518163 -25.466737 45.072413 -18.248779 30.663818 C-16.691503 27.555075 -15.137949 24.444488 -13.585358 21.333403 C-12.09082 18.339872 -10.593261 15.347856 -9.095947 12.355713 C-8.53875 11.239294 -7.981553 10.122875 -7.407471 8.972626 C-6.896035 7.952907 -6.3846 6.933188 -5.857666 5.882568 C-5.40738 4.982793 -4.957095 4.083017 -4.493164 3.155975 C-2.889401 0.136196 -2.889401 0.136196 0 0 Z " fill="#050505" transform="translate(204.408447265625,111.886474609375)"/>
<path d="M0 0 C8.921749 -0.559402 18.017888 2.529604 24.929688 8.222656 C24.242077 11.878305 22.675192 14.741329 20.867188 17.972656 C20.319336 18.9575 19.771484 19.942344 19.207031 20.957031 C18.574746 22.078516 18.574746 22.078516 17.929688 23.222656 C15.182697 22.162576 12.722277 21.100095 10.179688 19.597656 C5.978087 17.820056 2.423609 17.953021 -2.070312 18.222656 C-2.400312 20.202656 -2.730312 22.182656 -3.070312 24.222656 C0.570687 27.279465 4.323998 29.709066 8.429688 32.097656 C14.616984 35.801216 19.092174 39.415058 21.929688 46.222656 C22.888887 53.929712 22.106016 60.61127 17.929688 67.222656 C12.818388 73.275511 6.853745 77.218371 -1.070312 78.222656 C-12.796783 79.087402 -21.6274 78.274542 -30.695312 70.472656 C-31.832883 69.40253 -32.96286 68.323922 -34.070312 67.222656 C-32.637231 63.263588 -30.738893 59.935474 -28.445312 56.410156 C-27.813672 55.434336 -27.182031 54.458516 -26.53125 53.453125 C-26.049141 52.71707 -25.567031 51.981016 -25.070312 51.222656 C-21.65781 52.842149 -19.020346 54.862629 -16.070312 57.222656 C-12.973453 59.083402 -10.609028 59.518861 -7.007812 59.535156 C-5.721973 59.560293 -5.721973 59.560293 -4.410156 59.585938 C-2.021105 59.399319 -2.021105 59.399319 -0.273438 57.902344 C1.51993 55.398617 1.12889 53.210695 0.929688 50.222656 C0.424375 49.981602 -0.080938 49.740547 -0.601562 49.492188 C-3.994859 47.747217 -7.280818 45.842335 -10.570312 43.910156 C-11.23418 43.531816 -11.898047 43.153477 -12.582031 42.763672 C-17.8388 39.663123 -21.827706 36.067025 -24.070312 30.222656 C-25.026091 23.06543 -24.223877 17.17383 -20.070312 11.222656 C-16.011001 6.374034 -10.713331 2.468952 -4.695312 0.410156 C-3.128241 0.298223 -1.562057 0.167995 0 0 Z " fill="#070707" transform="translate(144.0703125,109.77734375)"/>
<path d="M0 0 C6.656588 -0.126258 13.374904 -0.229005 18.644531 4.464844 C23.433045 10.108942 23.500317 14.913165 23.335938 22.085938 C22.790417 28.441891 20.947103 33.43911 16.0625 37.683594 C10.606051 41.331561 5.706935 42.141047 -0.8125 42.0625 C-1.78832 42.053477 -2.764141 42.044453 -3.769531 42.035156 C-4.873613 42.017754 -4.873613 42.017754 -6 42 C-4.645368 27.883307 -2.443335 13.966486 0 0 Z " fill="#F7F7F7" transform="translate(275,128)"/>
<path d="M0 0 C2.579898 4.190047 2.680472 8.211799 2 13 C-0.080495 17.086687 -1.7559 19.32068 -6 21 C-8.4375 21.300781 -8.4375 21.300781 -11 21.3125 C-11.845625 21.329258 -12.69125 21.346016 -13.5625 21.363281 C-16.515006 20.923244 -17.852427 20.046905 -20 18 C-21.424846 13.725462 -21.904996 10.080365 -20.058594 5.835938 C-18.272342 2.756193 -16.690198 0.479304 -13.75 -1.5625 C-9.209372 -2.284873 -4.162413 -2.081207 0 0 Z " fill="#E26030" transform="translate(43,80)"/>
<path d="M0 0 C10.751037 -0.563647 10.751037 -0.563647 15 3 C16.532149 6.064298 16.229385 8.616564 16 12 C14.711731 15.051164 13.729375 16.535852 10.9375 18.3125 C6.62646 19.321467 2.406385 19.15401 -2 19 C-1.451189 12.64781 -0.834884 6.321264 0 0 Z " fill="#F5F5F5" transform="translate(73,127)"/>
<path d="M0 0 C0.66 0 1.32 0 2 0 C3.32 8.25 4.64 16.5 6 25 C1.05 25 -3.9 25 -9 25 C-8.300624 21.503121 -7.810967 19.23782 -6.40625 16.152344 C-6.098164 15.464629 -5.790078 14.776914 -5.472656 14.068359 C-4.991191 13.013584 -4.991191 13.013584 -4.5 11.9375 C-3.861628 10.531286 -3.226113 9.12377 -2.59375 7.714844 C-2.31209 7.097302 -2.03043 6.479761 -1.740234 5.843506 C-0.967455 3.918949 -0.457641 2.020595 0 0 Z " fill="#EBEBEB" transform="translate(211,131)"/>
<path d="M0 0 C0.66 0 1.32 0 2 0 C1.77082 1.607273 1.515792 3.210874 1.25 4.8125 C1.110781 5.70582 0.971563 6.599141 0.828125 7.519531 C-0.212328 10.635983 -1.142629 11.419018 -4 13 C-14.341434 16.239485 -24.686777 17.078384 -35.4375 17.25 C-36.24405 17.271511 -37.050601 17.293022 -37.881592 17.315186 C-40.183594 17.328125 -40.183594 17.328125 -44 17 C-44.66 16.01 -45.32 15.02 -46 14 C-44.938457 14.239766 -44.938457 14.239766 -43.855469 14.484375 C-31.34224 16.743946 -15.866547 14.638741 -4 10 C-0.927711 7.033652 -0.473377 4.165714 0 0 Z " fill="#A32228" transform="translate(322,280)"/>
<path d="M0 0 C0.977449 3.040953 1.162712 4.996327 0 8 C-0.97648 9.022979 -1.981313 10.019043 -3 11 C-3.598125 11.94875 -4.19625 12.8975 -4.8125 13.875 C-7.787174 18.124535 -10.723655 21.356685 -15.875 22.8125 C-16.57625 22.874375 -17.2775 22.93625 -18 23 C-18 23.66 -18 24.32 -18 25 C-19.32 24.67 -20.64 24.34 -22 24 C-17.316943 20.223341 -17.316943 20.223341 -14.910156 18.527344 C-8.289642 13.740203 -2.63262 7.897859 0 0 Z " fill="#AD272D" transform="translate(327,168)"/>
<path d="M0 0 C-3.27379 3.27379 -8.22978 2.688322 -12.703125 2.947266 C-16.643141 3.291506 -18.48727 3.556261 -21.554688 6.210938 C-23.262809 9.50715 -23.276453 11.171203 -22.75 14.8125 C-22.621094 15.78832 -22.492188 16.764141 -22.359375 17.769531 C-22.240781 18.505586 -22.122187 19.241641 -22 20 C-24.669004 17.44704 -25.884288 16.018262 -26.3125 12.25 C-25.919936 8.167337 -24.531009 6.18184 -22 3 C-18.554103 0.702735 -16.768361 0.629171 -12.6875 0.375 C-11.577617 0.300234 -10.467734 0.225469 -9.324219 0.148438 C-6.210374 0.009394 -3.116389 -0.028288 0 0 Z " fill="#A92C31" transform="translate(298,274)"/>
<path d="M0 0 C0.99 0.495 0.99 0.495 2 1 C2.268125 2.11375 2.53625 3.2275 2.8125 4.375 C3.64111 8.006103 3.64111 8.006103 5.996094 9.628906 C10.007968 11.460074 13.903775 11.979554 18.25 12.5625 C21.196993 12.964154 24.076025 13.434738 27 14 C27.33 14.66 27.66 15.32 28 16 C24.601615 15.779157 21.20745 15.518199 17.8125 15.25 C16.852793 15.188125 15.893086 15.12625 14.904297 15.0625 C9.457268 14.610152 5.885787 14.20506 2 10 C-0.429452 6.355823 -0.161796 4.287587 0 0 Z " fill="#AA3334" transform="translate(273,85)"/>
<path d="M0 0 C2.460028 2.460028 2.24552 3.847938 2.277893 7.206665 C2.27182 8.264522 2.27182 8.264522 2.265625 9.34375 C2.267538 10.068646 2.269452 10.793542 2.271423 11.540405 C2.272785 13.073653 2.269091 14.606911 2.260742 16.140137 C2.250042 18.490823 2.260638 20.840744 2.273438 23.191406 C2.272116 24.679689 2.269553 26.167972 2.265625 27.65625 C2.269673 28.361488 2.273722 29.066726 2.277893 29.793335 C2.229925 34.770075 2.229925 34.770075 0 37 C-0.99 36.67 -1.98 36.34 -3 36 C-2.34 36 -1.68 36 -1 36 C-0.67 24.12 -0.34 12.24 0 0 Z " fill="#A3222B" transform="translate(410,131)"/>
<path d="M0 0 C-6.049306 3.629583 -13.180513 3.139173 -20 3 C-20.290039 3.644531 -20.580078 4.289062 -20.878906 4.953125 C-22 7 -22 7 -23.9375 7.75 C-26.927839 9.562327 -27.290124 11.973169 -28.289062 15.222656 C-29 17 -29 17 -31 18 C-29.743084 11.94286 -28.377855 6.944821 -23.285156 3.117188 C-16.273166 -0.310896 -7.672649 -0.300888 0 0 Z " fill="#A32127" transform="translate(405,168)"/>
<path d="M0 0 C-0.66 0.66 -1.32 1.32 -2 2 C-4.285156 1.757812 -4.285156 1.757812 -7.0625 1.125 C-12.180421 0.071708 -16.786032 -0.17095 -22 0 C-22 0.66 -22 1.32 -22 2 C-22.66 2 -23.32 2 -24 2 C-24.66 3.32 -25.32 4.64 -26 6 C-26.66 5.67 -27.32 5.34 -28 5 C-23.767457 -6.158523 -8.956196 -2.388319 0 0 Z " fill="#A42C2B" transform="translate(302,79)"/>
<path d="M0 0 C6.6 0 13.2 0 20 0 C20 0.33 20 0.66 20 1 C18.879805 1.01418 17.759609 1.028359 16.605469 1.042969 C15.132771 1.08987 13.660116 1.138117 12.1875 1.1875 C11.449512 1.193301 10.711523 1.199102 9.951172 1.205078 C7.504353 1.253165 7.504353 1.253165 4 2 C1.32162 5.076372 0.569658 8.091568 -0.0625 12.0625 C-0.604953 15.415378 -1.343543 18.023875 -3 21 C-2.883424 19.186939 -2.75621 17.374561 -2.625 15.5625 C-2.555391 14.553164 -2.485781 13.543828 -2.414062 12.503906 C-1.915897 8.288302 -0.920856 4.143852 0 0 Z " fill="#C97259" transform="translate(20,111)"/>
<path d="M0 0 C1.307109 0.14502 1.307109 0.14502 2.640625 0.292969 C3.336719 0.464414 4.032812 0.635859 4.75 0.8125 C5.08 1.4725 5.41 2.1325 5.75 2.8125 C4.698125 2.708086 4.698125 2.708086 3.625 2.601562 C-4.187665 2.155731 -7.482652 3.811698 -13.25 8.8125 C-15.540555 10.347081 -17.77441 11.574705 -20.25 12.8125 C-20.91 12.4825 -21.57 12.1525 -22.25 11.8125 C-20.356429 10.371936 -18.460273 8.93501 -16.5625 7.5 C-16.032051 7.095879 -15.501602 6.691758 -14.955078 6.275391 C-5.680953 -0.722876 -5.680953 -0.722876 0 0 Z " fill="#A1262B" transform="translate(360.25,21.1875)"/>
<path d="M0 0 C0.99 0 1.98 0 3 0 C3.875 3.0625 3.875 3.0625 4 7 C1.986776 10.337887 -0.488746 13.244373 -4 15 C-4.28875 15.61875 -4.5775 16.2375 -4.875 16.875 C-6.194804 19.367963 -7.677217 20.451478 -10 22 C-10.33 21.01 -10.66 20.02 -11 19 C-10.385117 18.396719 -9.770234 17.793438 -9.136719 17.171875 C-8.328477 16.372656 -7.520234 15.573438 -6.6875 14.75 C-5.886992 13.961094 -5.086484 13.172188 -4.261719 12.359375 C-2.290637 10.303186 -0.505189 8.416225 1 6 C0.774261 2.807647 0.774261 2.807647 0 0 Z " fill="#AA262D" transform="translate(383,219)"/>
<path d="M0 0 C0.99 0.33 1.98 0.66 3 1 C1.979236 3.466846 1.267525 4.810143 -0.9375 6.375 C-3.800879 8.630996 -4.733131 10.579454 -6 14 C-6.231893 17.019544 -6.181266 19.978907 -6 23 C-8.394116 20.605884 -8.295989 19.962137 -8.3125 16.6875 C-8.207805 12.584763 -7.533165 10.319319 -5 7 C-4.10209 5.730633 -3.206358 4.459724 -2.3125 3.1875 C-1.549375 2.135625 -0.78625 1.08375 0 0 Z " fill="#A5252C" transform="translate(378,82)"/>
<path d="M0 0 C0.66 0.33 1.32 0.66 2 1 C-9.33713 12.890661 -9.33713 12.890661 -16 16 C-16 14.68 -16 13.36 -16 12 C-14.02 11.67 -12.04 11.34 -10 11 C-9.67 10.01 -9.34 9.02 -9 8 C-7.532027 6.548677 -6.003267 5.157736 -4.4375 3.8125 C-3.611211 3.09707 -2.784922 2.381641 -1.933594 1.644531 C-1.295508 1.101836 -0.657422 0.559141 0 0 Z " fill="#A82129" transform="translate(337,192)"/>
<path d="M0 0 C0.33 0.99 0.66 1.98 1 3 C3.504475 4.218699 3.504475 4.218699 6 5 C6 5.66 6 6.32 6 7 C-4.880282 4.021127 -4.880282 4.021127 -9 1 C-9 0.67 -9 0.34 -9 0 C-5.699038 -0.82524 -3.1967 -1.370014 0 0 Z " fill="#B92630" transform="translate(318,52)"/>
<path d="M0 0 C0.33 0 0.66 0 1 0 C1.097969 0.747656 1.195938 1.495313 1.296875 2.265625 C2.091486 8.289624 2.091486 8.289624 4.9375 13.5 C5.618125 13.995 6.29875 14.49 7 15 C8 16 9 17 10 18 C9.67 18.99 9.34 19.98 9 21 C0.259259 12.744856 0.259259 12.744856 -0.246094 7.394531 C-0.249589 4.916279 -0.17584 2.471526 0 0 Z " fill="#A62229" transform="translate(370,193)"/>
</svg>
